<svg width="24" height="24" viewBox="0 0 24 24" fill="none" xmlns="http://www.w3.org/2000/svg">
<path fill-rule="evenodd" clip-rule="evenodd" d="M12.9393 4.38076C12.4317 3.87308 11.6085 3.87308 11.1009 4.38076L4.38086 11.1008C4.13706 11.3446 4.0001 11.6752 4.0001 12.02C4.0001 12.3648 4.13706 12.6954 4.38086 12.9392L11.1009 19.6592C11.6085 20.1669 12.4317 20.1669 12.9393 19.6592C13.447 19.1516 13.447 18.3284 12.9393 17.8208L8.43858 13.32H19.3001C20.0181 13.32 20.6001 12.738 20.6001 12.02C20.6001 11.302 20.0181 10.72 19.3001 10.72H8.43858L12.9393 6.21924C13.447 5.71156 13.447 4.88844 12.9393 4.38076Z" fill="white"/>
</svg>
