<svg width="640" height="298" viewBox="0 0 640 298" fill="none" xmlns="http://www.w3.org/2000/svg">
    <path fill-rule="evenodd" clip-rule="evenodd" d="M226.666.62h16.092v2.76h-13.333v13.333h-2.759V.62zM413.334.62h-16.092v2.76h13.333v13.333h2.759V.62z" fill="#E3BF98"/>
    <path fill-rule="evenodd" clip-rule="evenodd" d="M223.062 75.03V287.36h2.758V75.03h-2.758z" fill="#2D475D"/>
    <path fill-rule="evenodd" clip-rule="evenodd" d="m202.787 67.043 20.281 219.992 2.746-.253-20.28-219.993-2.747.254z" fill="#2D475D"/>
    <path fill-rule="evenodd" clip-rule="evenodd" d="m137.945 12.778 85.179 274.202 2.634-.819-85.18-274.202-2.633.819z" fill="#2D475D"/>
    <path fill-rule="evenodd" clip-rule="evenodd" d="m177.567 41.021 45.519 244.806 2.711-.504-45.519-244.806-2.711.504z" fill="#2D475D"/>
    <path fill-rule="evenodd" clip-rule="evenodd" d="m71.871 200.196 151.88 87.812 1.38-2.389-151.88-87.811-1.38 2.388z" fill="#2D475D"/>
    <path fill-rule="evenodd" clip-rule="evenodd" d="M38.411 121.454 223.52 287.945l1.844-2.051L40.255 119.402l-1.844 2.052z" fill="#2D475D"/>
    <path fill-rule="evenodd" clip-rule="evenodd" d="m101.12 70.744 122.12 216.983 2.403-1.353L103.524 69.391l-2.404 1.353z" fill="#2D475D"/>
    <path fill-rule="evenodd" clip-rule="evenodd" d="m56.35 96.74 164.351 187.023 2.071-1.821L58.422 94.919l-2.071 1.821z" fill="#2D475D"/>
    <path fill-rule="evenodd" clip-rule="evenodd" d="m9.409 202.989 214.525 84.752 1.013-2.566-214.525-84.751-1.013 2.565z" fill="#2D475D"/>
    <path fill-rule="evenodd" clip-rule="evenodd" d="M93.292 287.837h131.149v-2.758H93.292v2.758z" fill="#2D475D"/>
    <path fill-rule="evenodd" clip-rule="evenodd" d="m67.804 257.61 153.683 28.401.501-2.713-153.683-28.4-.5 2.712z" fill="#2D475D"/>
    <path d="M220.836 64.211a3.606 3.606 0 1 0 7.211.001 3.606 3.606 0 0 0-7.211 0zM200.104 56.998a3.606 3.606 0 1 0 7.211.002 3.606 3.606 0 0 0-7.211-.002zM132.502 5.606a3.606 3.606 0 1 0 7.211.002 3.606 3.606 0 0 0-7.211-.002zM172.162 29.95a3.606 3.606 0 1 0 7.212.001 3.606 3.606 0 0 0-7.212-.001zM91.94 60.605a3.606 3.606 0 1 0 7.211 0 3.606 3.606 0 0 0-7.212 0zM29.746 114.701a3.606 3.606 0 1 0 7.213.001 3.606 3.606 0 0 0-7.213-.001zM0 198.551a3.605 3.605 0 1 0 7.21.001 3.605 3.605 0 0 0-7.21-.001zM81.123 286.007a3.605 3.605 0 1 0 7.211.001 3.605 3.605 0 0 0-7.211-.001zM55.885 256.254a3.605 3.605 0 1 0 7.21 0 3.606 3.606 0 1 0-7.21 0zM63.096 194.945a3.606 3.606 0 1 0 7.212 0 3.606 3.606 0 0 0-7.212 0z" fill="#2D475D"/>
    <path fill-rule="evenodd" clip-rule="evenodd" d="M416.938 75.03V287.36h-2.758V75.03h2.758z" fill="#2D475D"/>
    <path fill-rule="evenodd" clip-rule="evenodd" d="m437.213 67.043-20.281 219.992-2.746-.253 20.28-219.993 2.747.254z" fill="#2D475D"/>
    <path fill-rule="evenodd" clip-rule="evenodd" d="M502.055 12.778 416.876 286.98l-2.634-.819 85.18-274.202 2.633.819z" fill="#2D475D"/>
    <path fill-rule="evenodd" clip-rule="evenodd" d="m462.433 41.021-45.519 244.806-2.711-.504 45.519-244.806 2.711.504z" fill="#2D475D"/>
    <path fill-rule="evenodd" clip-rule="evenodd" d="m568.129 200.196-151.88 87.812-1.38-2.389 151.88-87.811 1.38 2.388z" fill="#2D475D"/>
    <path fill-rule="evenodd" clip-rule="evenodd" d="M601.589 121.454 416.481 287.945l-1.844-2.051 185.108-166.492 1.844 2.052z" fill="#2D475D"/>
    <path fill-rule="evenodd" clip-rule="evenodd" d="M538.88 70.744 416.76 287.727l-2.403-1.353L536.476 69.391l2.404 1.353z" fill="#2D475D"/>
    <path fill-rule="evenodd" clip-rule="evenodd" d="m583.649 96.74-164.35 187.023-2.071-1.821 164.35-187.023 2.071 1.821z" fill="#2D475D"/>
    <path fill-rule="evenodd" clip-rule="evenodd" d="m630.591 202.989-214.525 84.752-1.013-2.566 214.525-84.751 1.013 2.565z" fill="#2D475D"/>
    <path fill-rule="evenodd" clip-rule="evenodd" d="M546.708 287.837H415.559v-2.758h131.149v2.758z" fill="#2D475D"/>
    <path fill-rule="evenodd" clip-rule="evenodd" d="m572.196 257.61-153.683 28.401-.501-2.713 153.683-28.4.501 2.712z" fill="#2D475D"/>
    <path d="M419.164 64.211a3.606 3.606 0 1 1-7.211.001 3.606 3.606 0 0 1 7.211 0zM439.896 56.998a3.606 3.606 0 1 1-7.211.002 3.606 3.606 0 0 1 7.211-.002zM507.498 5.606a3.606 3.606 0 1 1-7.211.002 3.606 3.606 0 0 1 7.211-.002zM467.838 29.95a3.606 3.606 0 1 1-7.212.001 3.606 3.606 0 0 1 7.212-.001zM548.061 60.605a3.607 3.607 0 1 1-7.213 0 3.607 3.607 0 0 1 7.213 0zM610.254 114.701a3.606 3.606 0 1 1-7.213.001 3.606 3.606 0 0 1 7.213-.001zM640 198.551a3.605 3.605 0 1 1-7.211 0 3.605 3.605 0 1 1 7.211 0zM558.877 286.007a3.605 3.605 0 1 1-7.21.001 3.605 3.605 0 0 1 7.21-.001zM584.115 256.254a3.605 3.605 0 1 1-7.211 0 3.606 3.606 0 1 1 7.211 0zM576.904 194.945a3.606 3.606 0 1 1-7.212 0 3.606 3.606 0 0 1 7.212 0z" fill="#2D475D"/>
    <path fill-rule="evenodd" clip-rule="evenodd" d="m226.596 147.392-17.931-42.759-1.696.711 17.931 42.759 1.696-.711zM226.596 152.7l-17.931 42.759-1.696-.711 17.931-42.759 1.696.711z" fill="#E3BF98"/>
    <path fill-rule="evenodd" clip-rule="evenodd" d="m226.488 148.122-17.931-24.368-1.481 1.09 17.931 24.368 1.481-1.09zM226.488 151.97l-17.931 24.368-1.481-1.09 17.931-24.368 1.481 1.09z" fill="#E3BF98"/>
    <path fill-rule="evenodd" clip-rule="evenodd" d="m226.258 149.281-17.931-11.954-1.02 1.53 17.931 11.954 1.02-1.53z" fill="#E3BF98"/>
    <path fill-rule="evenodd" clip-rule="evenodd" d="m226.258 150.811-17.931 11.954-1.02-1.53 17.931-11.954 1.02 1.53z" fill="#E3BF98"/>
    <path fill-rule="evenodd" clip-rule="evenodd" d="M225.748 149.126h-17.011v1.84h17.011v-1.84z" fill="#E3BF98"/>
    <path d="M203.22 100.391a1.84 1.84 0 1 0 3.678 0 1.84 1.84 0 0 0-3.678 0zM201.38 136.253a1.84 1.84 0 1 0 3.679 0 1.84 1.84 0 0 0-3.679 0zM201.38 162a1.84 1.84 0 1 0 3.679 0 1.84 1.84 0 0 0-3.679 0zM203.22 198.782a1.84 1.84 0 1 0 3.68-.002 1.84 1.84 0 0 0-3.68.002z" fill="#E3BF98"/>
    <path fill-rule="evenodd" clip-rule="evenodd" d="M226.666 297.632h16.092v-2.759h-13.333V281.54h-2.759v16.092zM413.334 297.632h-16.092v-2.759h13.333V281.54h2.759v16.092zM412.945 147.392l17.931-42.759 1.696.711-17.931 42.759-1.696-.711zM412.945 152.7l17.931 42.759 1.696-.711-17.931-42.759-1.696.711z" fill="#E3BF98"/>
    <path fill-rule="evenodd" clip-rule="evenodd" d="m413.053 148.122 17.931-24.368 1.481 1.09-17.931 24.368-1.481-1.09zM413.053 151.97l17.931 24.368 1.481-1.09-17.931-24.368-1.481 1.09z" fill="#E3BF98"/>
    <path fill-rule="evenodd" clip-rule="evenodd" d="m413.283 149.281 17.931-11.954 1.02 1.53-17.931 11.954-1.02-1.53z" fill="#E3BF98"/>
    <path fill-rule="evenodd" clip-rule="evenodd" d="m413.283 150.811 17.931 11.954 1.02-1.53-17.931-11.954-1.02 1.53z" fill="#E3BF98"/>
    <path fill-rule="evenodd" clip-rule="evenodd" d="M413.793 149.126h17.011v1.84h-17.011v-1.84z" fill="#E3BF98"/>
    <path d="M436.321 100.391a1.84 1.84 0 1 1-3.678 0 1.84 1.84 0 0 1 3.678 0zM438.161 136.253a1.84 1.84 0 1 1-3.678 0 1.84 1.84 0 0 1 3.678 0zM438.161 162a1.84 1.84 0 1 1-3.678 0 1.84 1.84 0 0 1 3.678 0zM436.321 198.782a1.84 1.84 0 1 1-3.68-.002 1.84 1.84 0 0 1 3.68.002z" fill="#E3BF98"/>
</svg>
