<svg width="24" height="24" viewBox="0 0 24 24" fill="none" xmlns="http://www.w3.org/2000/svg">
    <path d="M12.338 13.253v-2.357h7.796c.077.41.116.897.116 1.423 0 1.768-.474 3.954-2.004 5.512-1.487 1.578-3.388 2.419-5.905 2.419-4.667 0-8.591-3.872-8.591-8.625S7.674 3 12.34 3c2.582 0 4.421 1.032 5.803 2.377L16.51 7.04c-.99-.947-2.333-1.683-4.172-1.683-3.408 0-6.073 2.797-6.073 6.268 0 3.471 2.665 6.268 6.073 6.268 2.21 0 3.47-.904 4.276-1.725.654-.666 1.084-1.618 1.254-2.918l-5.53.003z" fill="#fff"/>
</svg>
