<svg width="40" height="40" viewBox="0 0 40 40" fill="none" xmlns="http://www.w3.org/2000/svg">
    <rect width="40" height="40" rx="8" fill="#2D475D"/>
    <path d="M24.009 10c-.43.024-.86.072-1.266.215a4.919 4.919 0 0 0-1.791 1.123 1.193 1.193 0 1 0 1.648 1.648c.262-.263.573-.406.907-.526.836-.286 1.863-.167 2.532.526.932.931.932 2.484 0 3.44l-3.583 3.582c-1.05 1.051-1.91 1.146-2.532 1.123-.62-.024-.979-.31-.979-.31a1.21 1.21 0 0 0-1.55 1.792c.097.126.218.23.356.31 0 0 .812.525 2.006.596 1.194.072 2.866-.382 4.323-1.863l3.583-3.583c1.863-1.863 1.863-4.872 0-6.712a4.643 4.643 0 0 0-2.317-1.266c-.43-.095-.907-.095-1.337-.071V10zm-4.777 5.518c-1.194-.048-2.843.358-4.252 1.791l-3.583 3.583c-1.863 1.863-1.863 4.872 0 6.712a4.697 4.697 0 0 0 4.92 1.122 4.919 4.919 0 0 0 1.792-1.122 1.193 1.193 0 1 0-1.648-1.648c-.263.262-.573.406-.908.525-.836.287-1.863.167-2.532-.526-.931-.931-.931-2.484 0-3.439l3.583-3.583c.956-.955 1.792-1.075 2.46-1.05.67.023 1.123.214 1.123.214a1.194 1.194 0 1 0 1.051-2.102s-.812-.477-2.006-.525v.048z" fill="#C3D7E7"/>
</svg>
