<svg width="40" height="40" viewBox="0 0 40 40" fill="none" xmlns="http://www.w3.org/2000/svg">
    <rect width="40" height="40" rx="8" fill="#2D475D"/>
    <path d="M24.833 10a3.166 3.166 0 0 0-3.166 3.167c.001.222.026.444.074.662l-7.19 3.594a3.165 3.165 0 0 0-2.384-1.09 3.167 3.167 0 1 0 1.31 6.048 3.168 3.168 0 0 0 1.075-.803l7.186 3.594a3.167 3.167 0 1 0 1.785-2.22 3.167 3.167 0 0 0-1.076.803l-7.185-3.593c.047-.218.07-.44.071-.662a3.166 3.166 0 0 0-.074-.66l7.19-3.595a3.165 3.165 0 1 0 4.623-4.317A3.167 3.167 0 0 0 24.834 10z" fill="#C3D7E7"/>
</svg>
