<svg width="120" height="120" viewBox="0 0 120 120" fill="none" xmlns="http://www.w3.org/2000/svg">
    <g filter="url(#9pkoitpvub)" clip-path="url(#mlo4ii5mva)">
        <rect x="6.154" y="6.154" width="108" height="108" rx="8" fill="#0F293F" shape-rendering="crispEdges"/>
        <rect x="6.654" y="6.654" width="107" height="107" rx="7.5" stroke="#4B657B" shape-rendering="crispEdges"/>
        <path d="M97.184 92.125c2.645 0 3.673-2.8 3.857-4.2 0 2.987 2.571 4.045 3.857 4.2-2.645 0-3.857 1.867-3.857 4.2 0-2.24-1.653-4.2-3.857-4.2zM16.955 99.925c2.645 0 3.674-2.8 3.857-4.2 0 2.987 2.572 4.044 3.857 4.2-2.645 0-3.857 1.867-3.857 4.2 0-2.24-1.653-4.2-3.857-4.2zM16.955 24.325c2.38 0 3.306-2.4 3.472-3.6 0 2.56 2.314 3.467 3.47 3.6-2.38 0-3.47 1.6-3.47 3.6 0-1.92-1.488-3.6-3.472-3.6zM95.64 30.025c1.588 0 2.205-1.8 2.315-2.7 0 1.92 1.543 2.6 2.314 2.7-1.587 0-2.314 1.2-2.314 2.7 0-1.44-.992-2.7-2.314-2.7zM85.611 89.125c3.439 0 4.776-3.6 5.015-5.4 0 3.84 3.343 5.2 5.014 5.4-3.439 0-5.014 2.4-5.014 5.4 0-2.88-2.15-5.4-5.015-5.4zM23.896 36.325c3.174 0 4.409-3.2 4.63-4.8 0 3.414 3.085 4.623 4.628 4.8-3.174 0-4.629 2.134-4.629 4.8 0-2.56-1.984-4.8-4.628-4.8zM87.154 37.525c2.38 0 3.306-2.4 3.472-3.6 0 2.56 2.314 3.467 3.471 3.6-2.38 0-3.471 1.6-3.471 3.6 0-1.92-1.488-3.6-3.472-3.6zM31.611 92.125c2.38 0 3.306-2.4 3.472-3.6 0 2.56 2.314 3.467 3.471 3.6-2.38 0-3.471 1.6-3.471 3.6 0-1.92-1.488-3.6-3.472-3.6zM95.64 81.325c2.117 0 2.94-2 3.086-3 0 2.133 2.057 2.89 3.086 3-2.116 0-3.086 1.334-3.086 3 0-1.6-1.322-3-3.085-3z" fill="#87A1B7"/>
        <path d="m29.955 60.325 30.199-35.232 30.199 35.232-30.199 35.232-30.199-35.232z" stroke="#87A1B7"/>
        <path d="m38.825 60.325 21.329-25.029 21.328 25.03-21.328 25.029-21.33-25.03zM90.904 60.325l6.665-7.64 6.665 7.64-6.665 7.64-6.665-7.64zM55.427 18.325l4.727-5.252 4.727 5.252-4.727 5.253-4.727-5.253zM55.427 102.325l4.727-5.252 4.727 5.252-4.727 5.253-4.727-5.253zM15.304 60.325l6.665-7.64 6.665 7.64-6.665 7.64-6.665-7.64zM15.412 60.325h89.1M60.154 24.925v70.8" stroke="#87A1B7"/>
    </g>
    <defs>
        <clipPath id="mlo4ii5mva">
            <rect width="120" height="120" rx="8" fill="#fff"/>
        </clipPath>
        <filter id="9pkoitpvub" x="-3.846" y="3.154" width="128" height="128" filterUnits="userSpaceOnUse" color-interpolation-filters="sRGB">
            <feFlood flood-opacity="0" result="BackgroundImageFix"/>
            <feColorMatrix in="SourceAlpha" values="0 0 0 0 0 0 0 0 0 0 0 0 0 0 0 0 0 0 127 0" result="hardAlpha"/>
            <feOffset dy="7"/>
            <feGaussianBlur stdDeviation="5"/>
            <feComposite in2="hardAlpha" operator="out"/>
            <feColorMatrix values="0 0 0 0 0 0 0 0 0 0 0 0 0 0 0 0 0 0 0.25 0"/>
            <feBlend in2="BackgroundImageFix" result="effect1_dropShadow_0_106"/>
            <feBlend in="SourceGraphic" in2="effect1_dropShadow_0_106" result="shape"/>
        </filter>
    </defs>
</svg>
