<svg width="120" height="40" viewBox="0 0 120 40" fill="none" xmlns="http://www.w3.org/2000/svg">
    <path fill-rule="evenodd" clip-rule="evenodd" d="M11.723 8.199a16.737 16.737 0 0 1 10.465-3.654c9.284 0 16.81 7.526 16.81 16.81 0 2.168-.41 4.238-1.156 6.14l1.128.442c.8-2.04 1.24-4.26 1.24-6.582 0-9.953-8.069-18.022-18.022-18.022a17.948 17.948 0 0 0-11.22 3.918l.755.948zM5.378 21.355c0-1.975.34-3.87.965-5.628L5.2 15.322a17.993 17.993 0 0 0-1.035 6.033c0 5.5 2.464 10.424 6.347 13.73l.785-.923a16.772 16.772 0 0 1-5.92-12.807zm28.139 12.42c-.553.504-1.139.972-1.755 1.4l.691.995c.66-.459 1.288-.96 1.88-1.5l-.816-.895zM18.856 11.057h6.663l-3.406-3.484-3.257 3.484zm.908.908h4.847v1.212h-4.847v-1.212zm5.755-.908v2.12h2.727v5.603H16.13v-5.603h2.726v-2.12h6.663zm-5.755 3.029h4.847v3.087h-4.847v-3.087zm-2.725 0h1.817v3.087h-1.817v-3.087zm8.48 3.087h1.818v-3.087H25.52v3.087zm-7.885 5.603h9.087v.909h-9.087v-.909zm10.612-3.995H16.13l.74 1.211h1.673v1.875h7.269v-1.875h1.77l.664-1.212zm-9.5 5.754h7.1l1.162 9.474a1.182 1.182 0 0 0-1.061.096l-.947.592c-.376.235-.856.229-1.227-.016l-.422-.278a1.893 1.893 0 0 0-2.083 0l-.437.287c-.366.241-.839.25-1.213.023l-1.009-.61a1.18 1.18 0 0 0-1.14-.046l1.277-9.522zm-3.14 11.735c.369-.234.84-.235 1.21-.003l1.493.936c.637.4 1.45.384 2.072-.04l1.216-.829a1.136 1.136 0 0 1 1.28 0l1.2.82c.63.43 1.455.44 2.095.026l1.386-.896c.372-.241.85-.243 1.224-.006l2.29 1.45.405-.64-2.29-1.45a1.893 1.893 0 0 0-2.04.01l-1.386.896c-.384.248-.88.242-1.257-.016l-1.2-.819a1.893 1.893 0 0 0-2.134 0l-1.216.828c-.373.255-.86.264-1.243.024l-1.492-.935a1.893 1.893 0 0 0-2.019.004l-2.302 1.458.405.64 2.302-1.458zm1.21 2.269a1.136 1.136 0 0 0-1.21.003L13.302 40l-.405-.64 2.302-1.458a1.893 1.893 0 0 1 2.019-.005l1.492.936c.382.24.87.23 1.243-.024l1.216-.829a1.893 1.893 0 0 1 2.134 0l1.2.82c.377.258.873.264 1.257.016l1.386-.897a1.893 1.893 0 0 1 2.04-.01l2.29 1.451-.405.64-2.29-1.45a1.136 1.136 0 0 0-1.224.005l-1.386.896a1.893 1.893 0 0 1-2.095-.026l-1.2-.819a1.136 1.136 0 0 0-1.28 0l-1.216.829a1.893 1.893 0 0 1-2.072.04l-1.492-.936zm17.033-7.106c1.817 0 2.524-1.597 2.65-2.809.166 1.983.994 2.809 2.65 2.809-1.656 0-2.65.624-2.65 2.643 0-1.938-1.136-2.643-2.65-2.643zM8.557 8.028C8.42 9.34 7.653 11.07 5.68 11.07c1.644 0 2.877.764 2.877 2.864 0-2.187 1.08-2.864 2.878-2.864-1.799 0-2.698-.895-2.878-3.042z" fill="#E3BF98"/>
    <path d="m108.059 10.3-.163-.627h1.909l.345-2.898 2.071.54c-.081.26-.264.477-.772.477l-.223 1.88h.751l.833-1.145s.934.8 1.523 1.427c-.061.238-.264.346-.548.346h-2.64l-.264 2.356c-.284.26-.833.325-1.462.195l.305-2.551h-1.665zm-6.559 0-.162-.627h2.172l-.263-2.876 2.091.454c-.061.238-.223.432-.63.497l.203 1.925h.508l.751-1.103s.894.778 1.462 1.384c-.061.238-.243.346-.507.346h-2.153l.224 2.356c-.224.303-.731.433-1.361.433l-.264-2.79H101.5zm-2.03 3.373v6.702c.853-.238 1.766-.497 2.68-.778l.081.281a98.08 98.08 0 0 1-5.3 3.178c-.04.26-.202.454-.425.52l-1.016-2.163c.549-.13 1.422-.324 2.457-.605v-7.135h-2.233l-.163-.649h2.396V7.359l2.274.238c-.04.303-.223.519-.751.605v4.822h.711l.832-1.34s1.015.972 1.563 1.643c-.06.238-.223.346-.507.346h-2.6zm5.015 10.897h5.827v-4.151h-5.827v4.15zm5.767-4.8.751-.887 1.563 1.254c-.142.173-.325.303-.751.368v5.232c0 .087-.548.433-1.239.433h-.264v-.973h-5.827v.908c0 .13-.467.432-1.218.432h-.244v-7.48l1.685.713h5.544zm-1.645-2.508.893-1.211s1.036.843 1.665 1.492c-.061.238-.243.324-.507.324h-6.356l-.142-.605h4.447zm-.548-4.887c1.421 1.816 4.223 3.416 6.416 4.13l-.02.238c-.589.13-1.056.605-1.239 1.384-2.051-1.146-4.122-3.07-5.421-5.406-1.564 2.184-4.041 4.52-7.147 5.817l-.203-.26c2.781-1.795 5.015-4.649 6.03-6.984l2.477.67c-.061.238-.305.39-.893.411zM87.85 9.716h-3.938c-.143.216-.285.454-.427.692 2.173.497 2.985 1.448 3.086 2.162.467-.844.914-1.773 1.28-2.854zm-3.309 5.34a11.3 11.3 0 0 0 1.482-1.665c-.162.022-.365-.021-.568-.13-.406-.778-1.381-1.794-2.254-2.464-.366.497-.751 1.016-1.178 1.492 2.213.843 2.721 2.097 2.518 2.767zm-4.345-1.103-.203-.259c1.584-1.903 2.782-4.843 3.269-6.962l2.314.843c-.101.238-.263.368-.75.346-.163.368-.346.757-.57 1.168h3.656l.852-.952 1.726 1.535c-.162.173-.426.281-.873.303-1.766 4.54-4.365 6.876-9.604 8.151l-.183-.367c1.645-.627 3.005-1.34 4.163-2.249-.183.022-.386-.043-.589-.194-.244-.822-1.015-1.882-1.726-2.66a14.1 14.1 0 0 1-1.482 1.297zm-5.787-7.135.203-.151c4.345.93 2.924 4.216 1.401 3.005-.142-1.016-.893-2.162-1.604-2.854zm-1.239 8.584v-4.584h-1.238l-.163-.648h6.884l.934-1.254s1.096.886 1.746 1.556c-.061.238-.264.346-.528.346h-6.173v4.303c0 .303.061.39.711.39h1.726c.69 0 1.36 0 1.584-.022.182 0 .345-.022.446-.044.142-.021.325-.065.467-.108h.183l.102.022c.487.151.65.303.65.627 0 .648-.59.843-3.574.821h-1.909c-1.563 0-1.847-.324-1.847-1.405zm14.072 10.032 1.055-1.405s1.158.973 1.909 1.686c-.061.238-.264.346-.548.346H72.135l-.183-.627h8.244v-2.53h-6.152l-.142-.626h6.294V19.92c-2.05.195-4.224.324-6.274.324l-.04-.367c4.06-.433 9.096-1.514 11.735-2.465l1.665 1.73c-.203.194-.568.194-1.096-.044a68.388 68.388 0 0 1-4.346.649v2.53h3.838l1.015-1.32s1.137.909 1.848 1.6c-.06.239-.264.347-.548.347H81.84v2.53h5.4zM56.05 20.98l2.01.93c-.102.217-.264.325-.731.26-.873 1.275-2.498 2.767-4.284 3.632l-.203-.28c1.38-1.19 2.66-3.114 3.208-4.541zm5.36.347.203-.173c5.584 1.816 4.528 5.491 2.822 4.389-.487-1.384-1.949-3.157-3.025-4.216zm1.157-2.163v-2.118H56.72v2.119h5.847zm-2.335-9.167h-.913c-.69 1.362-1.604 2.595-2.741 3.61l.385.174h5.462l.163-.173a10.429 10.429 0 0 1-2.356-3.611zm-3.512 4.41v2.012h5.847v-2.011H56.72zm-6.904 7.85h2.112v-4.152h-2.112v4.151zm2.112-13.19h-2.112v3.784h2.112V9.067zm0 8.411v-4.022h-2.112v4.022h2.112zm11.939-7.308 1.807 1.103c-.122.173-.325.216-.65.108-.406.367-1.076.778-1.726 1.146 1.076.67 2.274 1.189 3.472 1.47l-.02.26c-.568.13-.995.605-1.157 1.362a10.479 10.479 0 0 1-1.523-.822v5.34c0 .13-.772.476-1.259.476h-.244v-.843h-2.03v4.67c0 1.21-.264 2.054-2.091 2.227-.02-.476-.102-.886-.325-1.146-.224-.26-.59-.432-1.381-.562v-.303s1.543.108 1.888.108c.285 0 .366-.108.366-.367V19.77H56.72v.562c0 .13-.488.519-1.239.519h-.244v-6.227c-.568.367-1.177.713-1.827.995v8.237c-.02.152-.73.563-1.28.563h-.202v-1.514h-2.112v1.924c0 .195-.548.627-1.218.627h-.264V7.662l1.563.8h1.828l.812-.995 1.726 1.449c-.142.195-.447.367-.853.454v5.751a10.468 10.468 0 0 0 2.498-2.205 1.167 1.167 0 0 1-.549-.216c-.162-.692-.73-1.6-1.177-2.076l.223-.151c1.462.28 2.091.886 2.233 1.427.407-.606.731-1.233 1.016-1.903h-3.838l-.162-.627h4.264c.304-.822.528-1.687.69-2.595l2.416.476c-.081.238-.243.368-.771.346-.183.605-.386 1.21-.63 1.773h3.878l.995-1.384s1.158.952 1.848 1.665c-.06.238-.264.346-.528.346H60.68c.508.8 1.218 1.514 2.03 2.119.447-.627.894-1.362 1.158-1.946zM76.285 33.038h2.478v.901h-2.478v-.901zm.731-1.52h1.016v5.887h-1.016v-5.886zM73.058 35.696c0 .31.066.551.2.722.132.17.335.256.607.256.196 0 .367-.038.512-.114a.887.887 0 0 0 .342-.342c.082-.151.124-.326.124-.522v-2.658h1.025v4.367h-1.025v-.674c-.14.253-.32.446-.542.58a1.51 1.51 0 0 1-.778.19c-.487 0-.864-.153-1.13-.457-.26-.303-.39-.715-.39-1.234v-2.772h1.055v2.658zM66.607 35.222c0-.45.102-.845.304-1.187.21-.342.49-.607.845-.797a2.447 2.447 0 0 1 1.206-.295c.45 0 .848.099 1.196.295.355.19.636.455.845.797.209.342.313.738.313 1.187 0 .443-.104.838-.313 1.187a2.25 2.25 0 0 1-.845.806c-.348.19-.747.285-1.196.285-.45 0-.851-.095-1.206-.285a2.25 2.25 0 0 1-.845-.806 2.316 2.316 0 0 1-.304-1.187zm1.054 0c0 .272.057.512.171.721.114.203.27.364.465.485.197.114.418.17.665.17.24 0 .459-.056.655-.17.202-.12.36-.282.475-.485.114-.209.17-.449.17-.721 0-.272-.056-.513-.17-.722a1.207 1.207 0 0 0-.475-.484 1.28 1.28 0 0 0-.655-.17 1.3 1.3 0 0 0-.665.17 1.225 1.225 0 0 0-.465.484c-.114.21-.17.45-.17.722zM62.625 30h1.006v7.405h-1.006V30zm2.61 3.038h1.254l-1.88 1.804 2.07 2.563h-1.244l-2.089-2.563 1.89-1.804zM57.268 35.222c0-.45.1-.845.303-1.187.21-.342.49-.607.845-.797a2.447 2.447 0 0 1 1.206-.295c.45 0 .848.099 1.196.295.355.19.636.455.845.797.209.342.313.738.313 1.187 0 .443-.104.838-.313 1.187a2.25 2.25 0 0 1-.845.806c-.348.19-.747.285-1.196.285-.45 0-.851-.095-1.206-.285a2.25 2.25 0 0 1-.845-.806 2.315 2.315 0 0 1-.303-1.187zm1.053 0c0 .272.057.512.171.721.114.203.27.364.466.485.196.114.417.17.664.17.24 0 .459-.056.655-.17.203-.12.36-.282.475-.485.114-.209.17-.449.17-.721 0-.272-.056-.513-.17-.722a1.207 1.207 0 0 0-.475-.484 1.281 1.281 0 0 0-.655-.17c-.247 0-.468.056-.664.17a1.225 1.225 0 0 0-.466.484c-.114.21-.17.45-.17.722zM52.201 35.222c0-.45.101-.845.304-1.187.209-.342.49-.607.845-.797a2.447 2.447 0 0 1 1.206-.295c.449 0 .848.099 1.196.295.354.19.636.455.845.797.209.342.313.738.313 1.187 0 .443-.104.838-.313 1.187a2.25 2.25 0 0 1-.845.806c-.348.19-.747.285-1.196.285-.45 0-.852-.095-1.206-.285a2.25 2.25 0 0 1-.845-.806 2.315 2.315 0 0 1-.304-1.187zm1.054 0c0 .272.057.512.17.721.115.203.27.364.466.485.196.114.418.17.665.17.24 0 .459-.056.655-.17.202-.12.36-.282.474-.485.114-.209.171-.449.171-.721 0-.272-.057-.513-.17-.722a1.207 1.207 0 0 0-.475-.484 1.281 1.281 0 0 0-.655-.17 1.3 1.3 0 0 0-.665.17 1.225 1.225 0 0 0-.465.484c-.114.21-.171.45-.171.722zM48.334 30.76h1.12v5.639h2.64v1.006h-3.76V30.76z" fill="#E3BF98"/>
</svg>
