<svg width="82" height="150" viewBox="0 0 82 150" fill="none" xmlns="http://www.w3.org/2000/svg">
    <g clip-path="url(#pz0j7mt8da)">
        <path fill="#2D475D" d="M0 0h82v149.5H0z"/>
        <path fill-rule="evenodd" clip-rule="evenodd" d="M32.43 79.076 24.662 91.59l11.06-7.017 5.637 22.245 5.608-22.132 10.956 6.952-7.768-12.512 16.887-4.373-16.89-4.374 7.79-12.499-10.963 6.981-5.62-22.18-5.674 22.39-11.109-7.074 7.763 12.456-16.604 4.3 16.697 4.323z" fill="#87A1B7"/>
        <path fill-rule="evenodd" clip-rule="evenodd" d="m33.584 78.611-6.601 10.632 9.198-5.836 5.177 20.429 5.148-20.316 9.095 5.771-6.6-10.63 15.09-3.908-15.095-3.909 6.606-10.6-9.084 5.785-5.16-20.365-5.214 20.575-9.23-5.878 6.58 10.557-14.81 3.835 14.9 3.858zm-17.85-3.858 16.604-4.3-7.763-12.456 11.11 7.074 5.673-22.39 5.62 22.18 10.963-6.98-7.79 12.498 16.89 4.374-16.887 4.373 7.768 12.512-10.956-6.952-5.608 22.132-5.637-22.245-11.06 7.017 7.77-12.514-16.697-4.323z" fill="#87A1B7"/>
        <path fill-rule="evenodd" clip-rule="evenodd" d="m25.94 66.11-5.197-7.577.301-.21 5.197 7.577-.301.21zm0 1.597-5.942-6.3.265-.256 5.942 6.3-.264.256zm-8.335-.142 8.044 1.104.05-.367-8.044-1.104-.05.367zM15.7 70.75l8.107-1.411.062.364-8.107 1.412-.062-.365zm-.08-7.668 8.851 4.29.158-.334-8.852-4.29-.158.334zM56.135 66.11l5.196-7.577-.3-.21-5.197 7.577.3.21zm0 1.597 5.942-6.3-.265-.255-5.943 6.3.265.255zm8.334-.142-8.044 1.104-.049-.367 8.044-1.104.05.367zm1.906 3.185-8.107-1.411-.062.364 8.107 1.412.062-.365zm.08-7.668-8.851 4.29-.159-.334 8.852-4.29.159.334zM56.135 83.338l5.197 7.578-.301.21-5.197-7.577.301-.21zm0-1.596 5.942 6.3-.265.255-5.942-6.3.265-.255zm8.335.142-8.044-1.104-.05.367 8.045 1.103.049-.366zm1.906-3.185-8.108 1.411-.062-.364 8.107-1.412.063.365zm.08 7.668-8.852-4.29-.158.334 8.852 4.29.158-.334zM15.89 78.891l8.106 1.412.063-.365-8.108-1.411-.062.364zm1.905 3.185 8.044-1.103.05.366-8.045 1.104-.049-.367zm8.335-.141-5.942 6.3.265.255 5.942-6.3-.265-.255zm0 1.596-5.197 7.577.301.211 5.197-7.577-.301-.211zm-10.321 3.028 8.852-4.29.158.334-8.852 4.29-.158-.334zM29.402 48.911l3.65 9.212.34-.138-3.65-9.211-.34.137zm5.576 9.288 1.243-9.135.362.05-1.242 9.135-.363-.05zm-1.068 1.176-.161-8.704.366-.007.161 8.704-.366.007zm-6.044-5.803 5.187 6.312.281-.236-5.186-6.313-.282.237zm-3.535 1.042 6.916 4.504-.198.311-6.916-4.504.198-.31zM52.94 48.911l-3.651 9.212-.34-.138 3.65-9.211.34.137zM47.362 58.2l-1.242-9.135-.363.05L47 58.25l.363-.05zm1.068 1.176.161-8.704-.366-.007-.161 8.704.366.007zm6.044-5.803-5.187 6.312-.281-.236 5.186-6.313.282.237zm3.535 1.042-6.916 4.504.198.311 6.916-4.504-.198-.31zM54.475 95.96l-5.187-6.313-.281.236 5.186 6.313.282-.237zm-6.044-5.804.161 8.703-.366.008-.161-8.704.366-.007zm-1.068 1.176-1.242 9.135-.363-.051L47 91.282l.363.05zm10.647 3.585-6.916-4.504.198-.311 6.916 4.503-.198.311zm-5.07 5.702-3.651-9.211-.34.137 3.65 9.212.34-.138zM28.055 95.96l5.187-6.313.281.236-5.186 6.313-.282-.237zm6.045-5.804-.162 8.703.366.008.162-8.704-.366-.007zm1.067 1.176 1.243 9.135.362-.051-1.242-9.134-.363.05zM24.52 94.917l6.916-4.504-.198-.311-6.916 4.503.198.311zm5.071 5.702 3.65-9.211.34.137-3.65 9.212-.34-.138z" fill="#C3D7E7" fill-opacity=".3"/>
        <path fill-rule="evenodd" clip-rule="evenodd" d="M42.36 109.454c18.025-.709 32.486-15.456 32.985-33.73a.99.99 0 0 0 .798-.974.99.99 0 0 0-.798-.975c-.499-18.274-14.96-33.02-32.985-33.73a.985.985 0 0 0-.967-.82.985.985 0 0 0-.963.799c-18.39.302-33.268 15.212-33.774 33.75a.99.99 0 0 0-.799.976.99.99 0 0 0 .8.975c.505 18.54 15.382 33.448 33.773 33.751.089.455.486.799.963.799a.986.986 0 0 0 .967-.821zm-.005-.37c17.825-.706 32.125-15.288 32.623-33.36a.99.99 0 0 1-.798-.974.99.99 0 0 1 .798-.975c-.498-18.07-14.798-32.653-32.623-33.36a.985.985 0 0 1-.962.795.985.985 0 0 1-.966-.816c-18.187.304-32.9 15.047-33.405 33.38a.99.99 0 0 1 .799.976.99.99 0 0 1-.799.975c.506 18.334 15.218 33.077 33.405 33.381a.985.985 0 0 1 .966-.816c.475 0 .87.341.962.794zm26.38-34.334c0 15.484-12.417 28.037-27.735 28.037S13.265 90.234 13.265 74.75c0-15.484 12.417-28.037 27.735-28.037S68.736 59.266 68.736 74.75zm.733 0c0 15.893-12.746 28.777-28.468 28.777S12.532 90.643 12.532 74.75 25.279 45.973 41 45.973 69.468 58.857 69.468 74.75z" fill="#87A1B7"/>
        <path fill-rule="evenodd" clip-rule="evenodd" d="m36.675 77.96 4.609 18.189 4.606-18.177 12.558-3.252L45.89 71.47l-4.607-18.182-4.61 18.193-12.514 3.24 12.515 3.24z" fill="#87A1B7"/>
        <path fill-rule="evenodd" clip-rule="evenodd" d="m36.976 77.657 4.308 17 4.305-16.99 11.384-2.947-11.383-2.947-4.306-16.995-4.31 17.006-11.339 2.936 11.34 2.937zm-.301.304 4.609 18.188 4.606-18.177 12.558-3.252L45.89 71.47l-4.607-18.182-4.61 18.193-12.514 3.24 12.515 3.24z" fill="#0F293F"/>
        <path d="m51.373 64.325-6.346 4.134.624 3.099.78.168 4.942-7.401z" fill="#87A1B7"/>
        <path fill-rule="evenodd" clip-rule="evenodd" d="m45.23 68.546.576 2.856.542.117 4.373-6.55-5.49 3.577zm6.043-4.377.251.259-5.011 7.504-1.018-.22-.673-3.34 6.451-4.203z" fill="#0F293F"/>
        <path d="m30.874 64.325 6.589 3.953-.867 3.28-.78.168-4.942-7.401z" fill="#87A1B7"/>
        <path fill-rule="evenodd" clip-rule="evenodd" d="m37.249 68.365-.803 3.035-.55.119-4.416-6.614 5.769 3.46zm-6.284-4.2-.245.263 5.011 7.505 1.011-.218.932-3.525-6.709-4.025z" fill="#0F293F"/>
        <path d="m51.373 85.047-6.59-3.952.867-3.28.78-.169 4.943 7.401z" fill="#87A1B7"/>
        <path fill-rule="evenodd" clip-rule="evenodd" d="m44.995 81.007.803-3.035.55-.119 4.416 6.615-5.769-3.461zm6.284 4.2.245-.263-5.011-7.505-1.01.218-.933 3.525 6.709 4.025z" fill="#0F293F"/>
        <path d="m30.874 85.047 6.589-3.952-.867-3.28-.78-.169-4.942 7.401z" fill="#87A1B7"/>
        <path fill-rule="evenodd" clip-rule="evenodd" d="m37.249 81.007-.803-3.035-.55-.119-4.416 6.615 5.769-3.461zm-6.284 4.2-.245-.263 5.011-7.505 1.011.218.932 3.525-6.709 4.025z" fill="#0F293F"/>
        <path fill-rule="evenodd" clip-rule="evenodd" d="M41.184 54.027h.366v20.698l4.092-3.448.234.284-4.204 3.542 4.189 2.823-.203.308-4.108-2.769v20.007h-.366V75.43l-4.49 2.444-.173-.326 4.51-2.455-4.535-3.526.223-.293 4.465 3.47V54.028z" fill="#0F293F"/>
        <path d="M79.07 78.45c0 .41-.328.74-.732.74a.736.736 0 0 1-.732-.74c0-.408.327-.74.732-.74.404 0 .732.332.732.74z" fill="#2D475D"/>
        <path d="M45.392 133.958c0 .409-.328.74-.732.74a.736.736 0 0 1-.732-.74c0-.409.328-.74.732-.74.404 0 .732.331.732.74zM16.107 133.958c0 .409-.328.74-.732.74a.736.736 0 0 1-.732-.74c0-.409.327-.74.732-.74.404 0 .732.331.732.74zM26.357 139.139c0 .408-.328.74-.732.74a.737.737 0 0 1-.732-.74c0-.409.327-.741.732-.741.404 0 .732.332.732.741zM56.374 124.337c0 .409-.327.74-.732.74a.736.736 0 0 1-.732-.74c0-.409.328-.74.732-.74.405 0 .732.331.732.74zM71.017 133.218c0 .408-.328.74-.732.74a.737.737 0 0 1-.732-.74c0-.409.328-.74.732-.74.404 0 .732.331.732.74zM75.41 128.777c0 .409-.328.74-.733.74a.736.736 0 0 1-.732-.74c0-.409.328-.74.733-.74.404 0 .732.331.732.74z" fill="#4B657B"/>
        <path d="M79.802 88.812c0 .409-.328.74-.732.74a.736.736 0 0 1-.732-.74c0-.409.328-.74.732-.74.404 0 .732.331.732.74zM79.802 96.213c0 .409-.328.74-.732.74a.736.736 0 0 1-.732-.74c0-.409.328-.74.732-.74.404 0 .732.331.732.74z" fill="#2D475D"/>
        <path fill-rule="evenodd" clip-rule="evenodd" d="M78.34 80.635c-.897 9.2-3.581 15.475-7.927 19.96-4.353 4.491-10.412 7.228-18.143 9.27-12.838 3.391-24.696 8.569-33.534 14.876-8.827 6.299-14.705 13.771-15.441 21.765l.729.068c.707-7.673 6.373-14.976 15.134-21.228 8.749-6.244 20.52-11.391 33.297-14.765 7.783-2.055 13.992-4.837 18.48-9.468 3.078-3.176 5.328-7.201 6.732-12.412-1.648 9.77-6.085 15.664-11.514 19.656-3.345 2.46-7.08 4.208-10.807 5.689a189.32 189.32 0 0 1-4.857 1.829v.001l-.67.245c-1.803.662-3.555 1.314-5.198 2.011-12.76 5.417-23.479 13.04-27.405 28.315l.709.186c3.843-14.951 14.312-22.441 26.98-27.819 1.624-.689 3.36-1.336 5.164-1.997l.668-.245c1.593-.584 3.232-1.184 4.876-1.838 3.751-1.49 7.553-3.264 10.971-5.778 6.863-5.047 12.13-13.036 12.486-27.536l-.075-.002c.026-.235.05-.472.073-.71l-.728-.073zm-6.378 28.118c-3.788 4.308-9.302 7.468-17.453 10.912-17.645 7.454-21.951 21.996-22.666 26.928l-.724-.107c.738-5.095 5.15-19.918 23.107-27.504 8.131-3.435 13.515-6.543 17.189-10.721 3.665-4.169 5.662-9.443 6.928-17.288l.723.119c-1.277 7.912-3.308 13.343-7.104 17.661zm-5.572 12.065c5.235-3.596 8.412-7.405 10.277-11.315 1.864-3.908 2.403-7.89 2.403-11.81h-.732c0 3.851-.53 7.713-2.33 11.489-1.8 3.774-4.883 7.489-10.03 11.024-5.035 3.459-9.9 7.226-13.508 11.527-3.612 4.305-5.98 9.167-5.98 14.807h.732c0-5.413 2.268-10.111 5.806-14.329 3.542-4.222 8.34-7.943 13.362-11.393z" fill="#4B657B"/>
        <path d="m48.321 126.557.494 1.534h1.595l-1.29.948.492 1.535-1.29-.948-1.292.948.493-1.535-1.29-.948h1.595l.493-1.534zM21.964 128.777l.493 1.535h1.596l-1.291.948.493 1.534-1.291-.948-1.291.948.493-1.534-1.291-.948h1.596l.493-1.535zM13.177 138.398l.493 1.535h1.596l-1.291.948.493 1.534-1.291-.948-1.291.948.493-1.534-1.291-.948h1.596l.493-1.535z" fill="#87A1B7"/>
        <path d="M3.295 71.05c0-.41.328-.74.733-.74.404 0 .732.33.732.74 0 .408-.328.74-.732.74a.736.736 0 0 1-.733-.74zM36.973 15.542c0-.409.328-.74.732-.74.405 0 .733.331.733.74s-.328.74-.733.74a.736.736 0 0 1-.732-.74zM66.258 15.542c0-.409.328-.74.733-.74.404 0 .732.331.732.74s-.328.74-.733.74a.736.736 0 0 1-.732-.74zM56.008 10.361c0-.408.328-.74.732-.74.405 0 .733.332.733.74 0 .41-.328.74-.733.74a.736.736 0 0 1-.732-.74zM25.99 25.163c0-.409.329-.74.733-.74.404 0 .732.332.732.74 0 .409-.328.74-.732.74a.736.736 0 0 1-.732-.74zM11.348 16.282c0-.408.328-.74.732-.74.405 0 .732.332.732.74 0 .41-.327.74-.732.74a.736.736 0 0 1-.732-.74zM6.956 20.723c0-.409.327-.74.732-.74.404 0 .732.331.732.74s-.328.74-.732.74a.736.736 0 0 1-.732-.74zM2.563 60.688c0-.409.328-.74.732-.74.405 0 .732.331.732.74s-.327.74-.732.74a.736.736 0 0 1-.732-.74zM2.563 53.287c0-.408.328-.74.732-.74.405 0 .732.332.732.74 0 .409-.327.74-.732.74a.736.736 0 0 1-.732-.74z" fill="#4B657B"/>
        <path d="m60.401 20.723-.493-1.534h-1.596l1.291-.949-.493-1.534 1.291.948 1.291-.948-.493 1.534 1.291.949h-1.596l-.493 1.534zM69.188 11.102l-.493-1.535H67.1l1.29-.948-.493-1.534 1.291.948 1.291-.948-.493 1.534 1.291.948h-1.596l-.493 1.535zM41 8.141l.492 1.534h1.596l-1.291.948.493 1.535L41 11.21l-1.292.948.493-1.534-1.29-.949h1.595l.493-1.534z" fill="#87A1B7"/>
        <path fill-rule="evenodd" clip-rule="evenodd" d="M-25-20.21H77V8.07c-2.089 5.977-7.184 11.586-14.306 16.519-8.835 6.119-20.723 11.148-33.627 14.503-7.86 2.044-13.948 4.81-18.297 9.418-2.87 3.04-4.964 6.862-6.32 11.763 1.747-9.292 6.16-14.955 11.536-18.818 3.384-2.433 7.164-4.16 10.936-5.625 1.655-.642 3.305-1.233 4.92-1.81l.673-.242c1.825-.654 3.598-1.298 5.26-1.988 12.912-5.354 23.764-12.89 27.74-27.994l-.708-.19c-3.89 14.776-14.485 22.182-27.31 27.5-1.644.681-3.402 1.32-5.227 1.975l-.673.24c-1.613.578-3.272 1.172-4.937 1.818-3.795 1.474-7.64 3.227-11.098 5.712C8.619 45.84 3.289 53.741 2.928 68.08l.076.002c-.026.235-.05.472-.074.71l.728.074c.906-9.152 3.436-15.39 7.642-19.846 4.21-4.461 10.143-7.182 17.949-9.211 12.961-3.37 24.935-8.429 33.86-14.61 6.498-4.5 11.415-9.622 13.89-15.149v161.74H-25v-192zM78 7.358V172.79H-26v-194H78V3.668l.703.067A19.033 19.033 0 0 1 78 7.358zM27.842 30.213c-8.025 3.397-13.633 6.513-17.545 10.761-3.921 4.259-6.106 9.62-7.364 17.434l.722.12c1.246-7.733 3.39-12.935 7.178-17.05 3.8-4.125 9.283-7.192 17.291-10.583C45.808 23.41 50.153 8.782 50.88 3.754l-.725-.107c-.703 4.866-4.943 19.212-22.313 26.566zM6.102 40.706c1.912-3.896 5.001-7.686 10.238-11.284 5.022-3.45 9.82-7.17 13.363-11.393C33.24 13.81 35.509 9.113 35.508 3.7h.733c0 5.64-2.368 10.502-5.98 14.808-3.608 4.3-8.474 8.067-13.51 11.526-5.142 3.533-8.142 7.23-9.993 11-1.854 3.777-2.565 7.65-3.101 11.564l-.725-.102c.538-3.93 1.262-7.902 3.17-11.79z" fill="#4B657B"/>
        <path fill-rule="evenodd" clip-rule="evenodd" d="M15.375 3.33H3.295v12.952h.732v-11.3l2.594 5.9.669-.3-2.05-4.665 5.11 5.44.532-.51-5.574-5.931 5.92 2.094.241-.698L5.135 4.07h10.24v-.74zM66.625 3.33h12.08v12.952h-.732v-11.3l-2.594 5.9-.669-.3 2.05-4.665-5.11 5.44-.532-.51 5.574-5.931-5.92 2.094-.241-.698 6.334-2.241h-10.24v-.74zM66.625 146.17h12.08v-12.952h-.732v11.3l-2.594-5.9-.669.301 2.05 4.664-5.11-5.439-.532.509 5.574 5.931-5.92-2.094-.241.698 6.334 2.241h-10.24v.741zM15.375 146.17H3.295v-12.952h.732v11.3l2.594-5.9.669.301-2.05 4.664 5.11-5.439.532.509-5.574 5.931 5.92-2.094.241.698-6.334 2.241h10.24v.741z" fill="#A5C0D5"/>
    </g>
    <defs>
        <clipPath id="pz0j7mt8da">
            <path fill="#fff" d="M0 0h82v149.5H0z"/>
        </clipPath>
    </defs>
</svg>
