<svg width="40" height="40" viewBox="0 0 40 40" fill="none" xmlns="http://www.w3.org/2000/svg">
<g clip-path="url(#clip0_1384_13158)">
<circle cx="20" cy="20" r="20" fill="#7064FC"/>
<path d="M14.7412 11C14.725 11.2124 14.7139 11.427 14.7139 11.6436C14.7141 16.0427 18.1135 19.6455 22.4287 19.9736V20.0273C18.1135 20.3554 14.714 23.9582 14.7139 28.3574C14.7139 28.5737 14.7251 28.7878 14.7412 29H14.6865C14.7027 28.7879 14.7139 28.5737 14.7139 28.3574C14.7138 23.9584 11.3149 20.3557 7 20.0273V19.9717C11.3147 19.6432 14.7136 16.0423 14.7139 11.6436C14.7139 11.427 14.7027 11.2124 14.6865 11H14.7412Z" fill="white"/>
<path d="M14.7412 11L14.9905 11.019C14.9958 10.9496 14.9719 10.8811 14.9246 10.8301C14.8773 10.779 14.8108 10.75 14.7412 10.75V11ZM22.4287 19.9736H22.6787C22.6787 19.8429 22.578 19.7343 22.4477 19.7244L22.4287 19.9736ZM22.4287 20.0273L22.4477 20.2766C22.578 20.2667 22.6787 20.1581 22.6787 20.0273H22.4287ZM14.7412 29V29.25C14.8108 29.25 14.8773 29.221 14.9246 29.1699C14.9719 29.1189 14.9958 29.0504 14.9905 28.981L14.7412 29ZM14.6865 29L14.4372 28.981C14.432 29.0504 14.4559 29.1189 14.5032 29.1699C14.5505 29.221 14.6169 29.25 14.6865 29.25V29ZM7 20.0273H6.75C6.75 20.1581 6.85069 20.2667 6.98103 20.2766L7 20.0273ZM7 19.9717L6.98102 19.7224C6.85069 19.7323 6.75 19.841 6.75 19.9717H7ZM14.6865 11V10.75C14.6169 10.75 14.5505 10.779 14.5032 10.8301C14.4558 10.8811 14.432 10.9496 14.4372 11.019L14.6865 11ZM14.7412 11L14.4919 10.981C14.4755 11.1972 14.4639 11.4186 14.4639 11.6436H14.7139H14.9639C14.9639 11.4354 14.9746 11.2275 14.9905 11.019L14.7412 11ZM14.7139 11.6436L14.4639 11.6436C14.4641 16.1745 17.9653 19.8849 22.4098 20.2229L22.4287 19.9736L22.4477 19.7244C18.2617 19.406 14.9641 15.9109 14.9639 11.6435L14.7139 11.6436ZM22.4287 19.9736H22.1787V20.0273H22.4287H22.6787V19.9736H22.4287ZM22.4287 20.0273L22.4098 19.7781C17.9653 20.116 14.464 23.8264 14.4639 28.3574L14.7139 28.3574L14.9639 28.3574C14.964 24.09 18.2617 20.5949 22.4477 20.2766L22.4287 20.0273ZM14.7139 28.3574L14.4639 28.3574C14.4639 28.5822 14.4755 28.803 14.4919 29.019L14.7412 29L14.9905 28.981C14.9746 28.7727 14.9639 28.5653 14.9639 28.3574L14.7139 28.3574ZM14.7412 29V28.75H14.6865V29V29.25H14.7412V29ZM14.6865 29L14.9358 29.019C14.9522 28.803 14.9639 28.5821 14.9639 28.3574L14.7139 28.3574L14.4639 28.3574C14.4639 28.5653 14.4531 28.7727 14.4372 28.981L14.6865 29ZM14.7139 28.3574L14.9639 28.3574C14.9638 23.8266 11.4631 20.1163 7.01897 19.7781L7 20.0273L6.98103 20.2766C11.1666 20.5952 14.4638 24.0902 14.4639 28.3574L14.7139 28.3574ZM7 20.0273H7.25V19.9717H7H6.75V20.0273H7ZM7 19.9717L7.01898 20.221C11.4628 19.8827 14.9636 16.1742 14.9639 11.6436L14.7139 11.6436L14.4639 11.6435C14.4636 15.9105 11.1665 19.4038 6.98102 19.7224L7 19.9717ZM14.7139 11.6436H14.9639C14.9639 11.4186 14.9523 11.1972 14.9358 10.981L14.6865 11L14.4372 11.019C14.4531 11.2275 14.4639 11.4355 14.4639 11.6436H14.7139ZM14.6865 11V11.25H14.7412V11V10.75H14.6865V11Z" fill="white"/>
<path d="M27.7314 20C27.7216 20.1296 27.7149 20.2604 27.7148 20.3926C27.715 23.081 29.7917 25.2828 32.4287 25.4834V25.5166C29.7918 25.7171 27.7152 27.9183 27.7148 30.6064C27.7148 30.7388 27.7216 30.8702 27.7314 31H27.6982C27.7081 30.8702 27.7148 30.7388 27.7148 30.6064C27.7145 27.9184 25.6368 25.7173 23 25.5166V25.4834C25.6369 25.2826 27.7148 23.0809 27.7148 20.3926C27.7148 20.2605 27.7081 20.1296 27.6982 20H27.7314Z" fill="white"/>
<path d="M27.7314 20L27.9807 20.019C27.986 19.9496 27.9621 19.8811 27.9148 19.8301C27.8675 19.779 27.801 19.75 27.7314 19.75V20ZM32.4287 25.4834H32.6787C32.6787 25.3527 32.578 25.244 32.4477 25.2341L32.4287 25.4834ZM32.4287 25.5166L32.4477 25.7659C32.578 25.756 32.6787 25.6473 32.6787 25.5166H32.4287ZM27.7314 31V31.25C27.801 31.25 27.8675 31.221 27.9148 31.1699C27.9621 31.1189 27.986 31.0504 27.9807 30.981L27.7314 31ZM27.6982 31L27.449 30.981C27.4437 31.0504 27.4676 31.1189 27.5149 31.1699C27.5622 31.221 27.6286 31.25 27.6982 31.25V31ZM23 25.5166H22.75C22.75 25.6473 22.8507 25.756 22.981 25.7659L23 25.5166ZM23 25.4834L22.981 25.2341C22.8507 25.244 22.75 25.3527 22.75 25.4834H23ZM27.6982 20V19.75C27.6286 19.75 27.5622 19.779 27.5149 19.8301C27.4676 19.8811 27.4437 19.9496 27.449 20.019L27.6982 20ZM27.7314 20L27.4822 19.981C27.472 20.1146 27.4649 20.2521 27.4648 20.3926L27.7148 20.3926L27.9648 20.3926C27.9649 20.2688 27.9712 20.1446 27.9807 20.019L27.7314 20ZM27.7148 20.3926L27.4648 20.3926C27.465 23.2127 29.6435 25.5222 32.4097 25.7327L32.4287 25.4834L32.4477 25.2341C29.94 25.0433 27.965 22.9492 27.9648 20.3926L27.7148 20.3926ZM32.4287 25.4834H32.1787V25.5166H32.4287H32.6787V25.4834H32.4287ZM32.4287 25.5166L32.4098 25.2673C29.6436 25.4777 27.4652 27.7865 27.4648 30.6064L27.7148 30.6064L27.9648 30.6065C27.9652 28.0501 29.9401 25.9566 32.4477 25.7659L32.4287 25.5166ZM27.7148 30.6064H27.4648C27.4648 30.7471 27.472 30.8852 27.4822 31.019L27.7314 31L27.9807 30.981C27.9711 30.8552 27.9648 30.7305 27.9648 30.6064H27.7148ZM27.7314 31V30.75H27.6982V31V31.25H27.7314V31ZM27.6982 31L27.9475 31.019C27.9577 30.8852 27.9648 30.7471 27.9648 30.6064H27.7148H27.4648C27.4648 30.7305 27.4585 30.8552 27.449 30.981L27.6982 31ZM27.7148 30.6064L27.9648 30.6064C27.9644 27.7865 25.7849 25.4778 23.019 25.2673L23 25.5166L22.981 25.7659C25.4886 25.9567 27.4645 28.0503 27.4648 30.6065L27.7148 30.6064ZM23 25.5166H23.25V25.4834H23H22.75V25.5166H23ZM23 25.4834L23.019 25.7327C25.7851 25.5221 27.9648 23.2127 27.9648 20.3926L27.7148 20.3926L27.4648 20.3926C27.4648 22.949 25.4888 25.0432 22.981 25.2341L23 25.4834ZM27.7148 20.3926L27.9648 20.3926C27.9648 20.2521 27.9577 20.1146 27.9475 19.981L27.6982 20L27.449 20.019C27.4585 20.1446 27.4648 20.2688 27.4648 20.3926L27.7148 20.3926ZM27.6982 20V20.25H27.7314V20V19.75H27.6982V20Z" fill="white"/>
<path d="M22.5 9.20801C22.5 10.6337 23.6016 11.7998 25 11.9062V11.9268C23.6016 12.0331 22.5 13.1993 22.5 14.625C22.5 14.6951 22.5055 14.7643 22.5107 14.833H22.4893C22.4945 14.7643 22.5 14.6951 22.5 14.625C22.5 13.1995 21.3982 12.0334 20 11.9268V11.9062C21.3982 11.7995 22.5 10.6335 22.5 9.20801C22.5 9.13797 22.4955 9.0687 22.4902 9H22.5107C22.5055 9.06872 22.5 9.13795 22.5 9.20801Z" fill="white"/>
<path d="M25 11.9062H25.25C25.25 11.7755 25.1493 11.6669 25.019 11.657L25 11.9062ZM25 11.9268L25.019 12.176C25.1493 12.1661 25.25 12.0575 25.25 11.9268H25ZM22.5107 14.833V15.083C22.5803 15.083 22.6468 15.054 22.6941 15.003C22.7414 14.9519 22.7653 14.8835 22.76 14.8141L22.5107 14.833ZM22.4893 14.833L22.24 14.814C22.2347 14.8834 22.2586 14.9519 22.3059 15.0029C22.3532 15.054 22.4197 15.083 22.4893 15.083V14.833ZM20 11.9268H19.75C19.75 12.0575 19.8507 12.1661 19.981 12.176L20 11.9268ZM20 11.9062L19.981 11.657C19.8507 11.6669 19.75 11.7756 19.75 11.9062H20ZM22.4902 9V8.75C22.4206 8.75 22.3542 8.77902 22.3069 8.83007C22.2596 8.88112 22.2357 8.94959 22.241 9.01899L22.4902 9ZM22.5107 9L22.76 9.01898C22.7653 8.94958 22.7414 8.88112 22.6941 8.83007C22.6468 8.77902 22.5803 8.75 22.5107 8.75V9ZM22.5 9.20801H22.25C22.25 10.7656 23.4536 12.0392 24.981 12.1555L25 11.9062L25.019 11.657C23.7497 11.5603 22.75 10.5017 22.75 9.20801H22.5ZM25 11.9062H24.75V11.9268H25H25.25V11.9062H25ZM25 11.9268L24.981 11.6775C23.4536 11.7937 22.25 13.0674 22.25 14.625H22.5H22.75C22.75 13.3313 23.7497 12.2726 25.019 12.176L25 11.9268ZM22.5 14.625L22.25 14.625C22.25 14.7064 22.2564 14.7857 22.2615 14.852L22.5107 14.833L22.76 14.8141C22.7546 14.7429 22.75 14.6837 22.75 14.625L22.5 14.625ZM22.5107 14.833V14.583H22.4893V14.833V15.083H22.5107V14.833ZM22.4893 14.833L22.7385 14.852C22.7436 14.7856 22.75 14.7064 22.75 14.625L22.5 14.625L22.25 14.625C22.25 14.6837 22.2454 14.7429 22.24 14.814L22.4893 14.833ZM22.5 14.625H22.75C22.75 13.0675 21.5463 11.7939 20.019 11.6775L20 11.9268L19.981 12.176C21.2502 12.2728 22.25 13.3315 22.25 14.625H22.5ZM20 11.9268H20.25V11.9062H20H19.75V11.9268H20ZM20 11.9062L20.019 12.1555C21.5462 12.0389 22.75 10.7655 22.75 9.20801H22.5H22.25C22.25 10.5015 21.2502 11.5601 19.981 11.657L20 11.9062ZM22.5 9.20801L22.75 9.20798C22.75 9.12792 22.7448 9.05078 22.7395 8.98101L22.4902 9L22.241 9.01899C22.2461 9.08663 22.25 9.14801 22.25 9.20804L22.5 9.20801ZM22.4902 9V9.25H22.5107V9V8.75H22.4902V9ZM22.5107 9L22.2615 8.98102C22.2564 9.0474 22.25 9.12661 22.25 9.20798L22.5 9.20801L22.75 9.20804C22.75 9.14929 22.7546 9.09003 22.76 9.01898L22.5107 9Z" fill="white"/>
</g>
<defs>
<clipPath id="clip0_1384_13158">
<rect width="40" height="40" fill="white"/>
</clipPath>
</defs>
</svg>
