<svg width="280" height="280" viewBox="0 0 280 280" fill="none" xmlns="http://www.w3.org/2000/svg">
    <circle cx="140" cy="140" r="91.833" stroke="#E3BF98" stroke-width="3"/>
    <circle cx="140" cy="140" r="111.5" stroke="#E3BF98"/>
    <mask id="5fusnydgca" maskUnits="userSpaceOnUse" x="54.244" y="33.089" width="174" height="214" fill="#000">
        <path fill="#fff" d="M54.244 33.089h174v214h-174z"/>
        <path fill-rule="evenodd" clip-rule="evenodd" d="m111.934 154.019-25.45 40.547 36.226-22.736 18.464 72.081 18.371-71.714 35.888 22.525-25.447-40.543 55.315-14.169-55.324-14.172 25.515-40.501-35.908 22.621-18.41-71.87-18.584 72.55-36.387-22.923 25.428 40.363-54.387 13.932 54.69 14.009z"/>
    </mask>
    <path fill-rule="evenodd" clip-rule="evenodd" d="m111.934 154.019-25.45 40.547 36.226-22.736 18.464 72.081 18.371-71.714 35.888 22.525-25.447-40.543 55.315-14.169-55.324-14.172 25.515-40.501-35.908 22.621-18.41-71.87-18.584 72.55-36.387-22.923 25.428 40.363-54.387 13.932 54.69 14.009z" fill="#E3BF98"/>
    <path d="m111.934 154.019 7.623 4.785 6.555-10.444-11.945-3.059-2.233 8.718zm-25.45 40.547-7.622-4.784 12.407 12.407-4.785-7.623zm36.226-22.736 8.718-2.234-3.06-11.944-10.443 6.555 4.785 7.623zm18.464 72.081-8.718 2.233h17.437l-8.719-2.233zm18.371-71.714 4.784-7.623-10.443-6.555-3.06 11.945 8.719 2.233zm35.888 22.525-4.785 7.623 12.407-12.407-7.622 4.784zm-25.447-40.543-2.234-8.718-11.944 3.06 6.555 10.443 7.623-4.785zm55.315-14.169 2.233 8.718v-17.437l-2.233 8.719zm-55.324-14.172-7.615-4.798-6.584 10.451 11.965 3.065 2.234-8.718zm25.515-40.501 7.614 4.797-12.412-12.412 4.798 7.615zm-35.908 22.621-8.718 2.233 3.065 11.966 10.451-6.584-4.798-7.615zm-18.41-71.87 8.719-2.233h-17.437l8.718 2.234zm-18.584 72.55-4.797 7.615 10.45 6.584 3.065-11.966-8.718-2.233zM86.203 85.715 91 78.1 78.588 90.512l7.615-4.797zm25.428 40.363 2.234 8.718 11.965-3.065-6.584-10.45-7.615 4.797zM57.244 140.01l-2.233-8.719v17.437l2.233-8.718zm47.067 9.225-25.45 40.547 15.246 9.569 25.45-40.547-15.246-9.569zm-13.042 52.954 36.225-22.737-9.569-15.245L81.7 186.944l9.569 15.245zm22.722-28.126 18.465 72.081 17.437-4.466-18.465-72.082-17.437 4.467zm35.902 72.081 18.37-71.714-17.437-4.466-18.37 71.714 17.437 4.466zm4.867-66.324 35.888 22.525 9.569-15.246-35.888-22.525-9.569 15.246zm48.295 10.118-25.446-40.543-15.246 9.569 25.447 40.543 15.245-9.569zm-30.836-27.04 55.315-14.17-4.466-17.437-55.316 14.17 4.467 17.437zm55.315-31.607-55.324-14.172-4.467 17.437 55.325 14.172 4.466-17.437zm-49.943-.656 25.515-40.5-15.229-9.595-25.515 40.5 15.229 9.595zm13.103-52.913-35.907 22.621 9.595 15.23 35.907-22.621-9.595-15.23zm-22.391 28.003-18.41-71.87-17.437 4.467 18.41 71.869 17.437-4.466zm-35.847-71.87-18.585 72.55 17.437 4.466 18.585-72.549-17.437-4.467zm-5.069 67.168L91 78.1l-9.594 15.23 36.387 22.923 9.594-15.23zM78.588 90.512l25.428 40.363 15.23-9.594-25.428-40.364-15.23 9.595zm30.81 26.847-54.387 13.932 4.467 17.437 54.387-13.932-4.467-17.437zm-54.387 31.369 54.69 14.01 4.466-17.437-54.69-14.01-4.466 17.437z" fill="#0F293F" mask="url(#5fusnydgca)"/>
    <path d="m74.14 87.111 17.021 24.554M71.64 96.35l19.465 20.415M63.45 116.125l26.348 3.577M83.784 123.057l-26.556 4.573M57.121 101.653l28.995 13.899M206.104 87.111l-17.02 24.554M208.605 96.35l-19.465 20.415M216.795 116.125l-26.349 3.577M196.461 123.057l26.556 4.573M223.123 101.653l-28.994 13.899M206.104 192.725l-17.02-24.553M208.605 183.486l-19.465-20.414M216.795 163.711l-26.349-3.576M196.461 156.779l26.556-4.572M223.123 178.183l-28.994-13.898M74.763 193.347l17.02-24.553M72.262 184.108l19.465-20.414M64.072 164.333l26.349-3.576M84.406 157.402l-26.556-4.573M57.744 178.805l28.995-13.898M124.935 56.853l-4.07 29.598M116.844 61.968l.53 28.201M97.436 70.993l16.989 20.456M107.725 89.852 85.072 75.26M102.563 56.054l11.957 29.848M156.178 56.853l4.07 29.598M164.269 61.968l-.53 28.201M183.676 70.993 166.687 91.45M173.387 89.852 196.04 75.26M178.549 56.054l-11.956 29.848M156.178 223.248l4.07-29.597M164.269 218.134l-.53-28.201M183.676 209.108l-16.989-20.455M173.387 190.249l22.653 14.593M178.549 224.048 166.593 194.2M125.557 223.248l-4.07-29.597M117.466 218.134l.53-28.201M98.058 209.108l16.989-20.455M108.348 190.249l-22.653 14.593M103.185 224.048l11.957-29.848" stroke="#E3BF98" stroke-opacity=".6" stroke-width="2"/>
    <path d="m125.067 151.511-38.578 42.933" stroke="#0F293F"/>
    <path d="M134.18 148.4h2.18v-5.5h-2.18v5.5zm-4.26-5.5v5.5h2.06v-5.5h-2.06zm-4.54-5.76v3.8c.78-.16 1.6-.32 2.4-.48v-3.32h-2.4zm6.6 0h-2.06v5.2h2.06v-5.2zm4.38 0h-2.18v5.2h2.18v-5.2zm.86-1.74 2.14 1.68c-.14.18-.42.34-.82.44v12.4c-.02.18-1.06.66-1.84.66h-.34v-1.62h-6.44v.92c0 .26-.84.76-1.78.76h-.36v-9.88c-.64.38-1.42.84-2.4 1.38v6c0 1.58-.3 2.42-2.68 2.64-.04-.7-.14-1.22-.36-1.56-.22-.34-.6-.58-1.38-.72v-.28s1.52.1 1.86.1c.3 0 .38-.08.38-.32v-4.7c-.4.22-.82.44-1.26.66-.1.24-.3.46-.54.5l-.94-2.66c.58-.08 1.56-.24 2.74-.46v-4.2h-2.44l-.16-.58h2.6v-4.54l2.92.3c-.04.28-.24.48-.74.54v3.7h.12l1-1.54s.68.66 1.28 1.3v-.68l2.28.94h1.92v-4.3l2.84.28c-.02.28-.18.46-.64.52v3.5h1.98l1.06-1.18zm18.5 4.44 1.36-1.74s1.52 1.18 2.44 2c-.06.22-.28.32-.58.32h-7.44c-.06.26-.26.44-.76.52v1.3c8.38-.24 7.18 4.52 4.84 3.6-.74-.84-2.58-2.26-4.84-3.28v7.58c0 .2-1.06.62-2.04.62h-.44v-10.34h-7.5l-.16-.58h7.66V132l3.12.26c-.04.28-.16.44-.64.52v3.04h2.96l1.26-1.74s1.46 1.18 2.3 2c-.04.22-.26.32-.54.32h-5.98v3.44h4.98z" fill="#0F293F"/>
    <circle cx="141.244" cy="28" fill="#E3BF98" r="3.111"/>
    <circle cx="28" cy="140" fill="#E3BF98" r="3.111"/>
    <circle cx="252" cy="140" r="3.111" fill="#E3BF98"/>
    <circle cx="141.244" cy="252" r="3.111" fill="#E3BF98"/>
    <mask id="mjjtek4dsb" fill="#fff">
        <path fill-rule="evenodd" clip-rule="evenodd" d="m124.839 151.611 16.644 64.977 16.634-64.937 45.35-11.617-45.346-11.615-16.638-64.952-16.648 64.991-45.19 11.576 45.194 11.577z"/>
    </mask>
    <path d="m124.839 151.611.968-.248-.147-.573-.573-.147-.248.968zm16.644 64.977-.969.248h1.938l-.969-.248zm16.634-64.937-.248-.969-.573.147-.147.574.968.248zm45.35-11.617.248.969v-1.937l-.248.968zm-45.346-11.615-.969.248.147.573.574.147.248-.968zm-16.638-64.952.969-.248h-1.938l.969.248zm-16.648 64.991.248.969.573-.147.147-.574-.968-.248zm-45.19 11.576-.249-.968v1.937l.249-.969zm44.225 11.825 16.644 64.977 1.938-.497-16.645-64.976-1.937.496zm18.582 64.977 16.634-64.937-1.937-.496-16.635 64.936 1.938.497zm15.914-64.216 45.349-11.617-.497-1.937-45.349 11.616.497 1.938zm45.349-13.554-45.346-11.616-.496 1.937 45.345 11.616.497-1.937zM159.09 128.17l-16.638-64.951-1.938.496 16.638 64.952 1.938-.497zm-18.576-64.951-16.648 64.991 1.937.496 16.649-64.991-1.938-.497zm-15.928 64.271-45.19 11.576.497 1.937 45.19-11.576-.497-1.937zm-45.19 13.513 45.195 11.577.496-1.937-45.194-11.577-.497 1.937z" fill="#0F293F" mask="url(#mjjtek4dsb)"/>
    <path d="m157.733 128.489 37.645-43.245M158.044 151.822l37.334 42.934M125.378 128.8l-39.2-43.245" stroke="#0F293F"/>
</svg>
