<svg width="200" height="30" viewBox="0 0 200 30" fill="none" xmlns="http://www.w3.org/2000/svg">
    <path d="M158.071 12.143c0 .202-.182.555-.946 1.01-.725.432-1.828.867-3.295 1.29-2.926.843-7.184 1.61-12.474 2.254-10.574 1.29-25.196 2.089-41.356 2.089s-30.782-.8-41.356-2.089c-5.29-.645-9.548-1.41-12.474-2.254-1.467-.423-2.57-.858-3.296-1.29-.763-.455-.945-.808-.945-1.01 0-.203.182-.555.945-1.01.726-.433 1.83-.867 3.296-1.29 2.926-.844 7.184-1.61 12.474-2.255C69.218 6.298 83.84 5.5 100 5.5s30.782.799 41.356 2.088c5.29.646 9.548 1.411 12.474 2.255 1.467.423 2.57.857 3.295 1.29.764.455.946.807.946 1.01z" stroke="#E3BF98"/>
    <path d="M199.5 15c0 .794-.538 1.675-1.827 2.62-1.275.934-3.188 1.857-5.699 2.747-5.015 1.78-12.301 3.39-21.337 4.745-18.066 2.71-43.04 4.388-70.637 4.388s-52.571-1.678-70.636-4.388c-9.037-1.355-16.323-2.966-21.338-4.745-2.511-.89-4.424-1.813-5.699-2.747C1.038 16.675.5 15.794.5 15s.538-1.675 1.827-2.62c1.275-.935 3.188-1.857 5.699-2.747 5.015-1.78 12.301-3.39 21.337-4.745C47.43 2.178 72.403.5 100 .5s52.571 1.678 70.637 4.388c9.036 1.355 16.322 2.966 21.337 4.745 2.511.89 4.424 1.813 5.699 2.747 1.289.945 1.827 1.826 1.827 2.62z" stroke="#E3BF98" stroke-opacity=".6"/>
</svg>
