<svg width="40" height="40" viewBox="0 0 40 40" fill="none" xmlns="http://www.w3.org/2000/svg">
<g clip-path="url(#clip0_1388_13247)">
<circle cx="20" cy="20" r="20" fill="#C946E6"/>
<path d="M22.25 19C22 20.5 21.8 23.8 23 25H17C18.2 23.8 18 20.5 17.75 19H22.25Z" fill="#C9A87F"/>
<circle cx="20" cy="14" r="6" fill="#F7E9D8"/>
<ellipse cx="20" cy="33" rx="6" ry="8" fill="#8E473C"/>
<path d="M22.5806 22C20.5161 24.0948 18.2796 22.8728 17.4194 22C9.16129 23.2569 5.03226 32.125 4 35.6164C6.75269 37.3621 13.6 41.0629 18.9677 41.9008L20 27L21 41.9782C26.2314 41.6532 32.9701 37.7685 36 35.6164C34.3484 27.2371 26.3656 22.5237 22.5806 22Z" fill="#2D475D"/>
<path d="M16 9.5L20 11C21.2444 10.5 23.5733 9.4 24 9" stroke="#C64747" stroke-width="0.5"/>
<path d="M15.4999 15.5C15.3502 9.9714 19.4999 9.5 20.4186 9V5C13.4186 5 10 17.5 11.5 20.5C12.7 22.9 15.9185 22.1667 16.9185 23C17.9185 23.3333 19.4342 25 19.9999 25C20.4999 25 20.0813 23 19.9999 21C18.9999 20.5 15.5812 18.5 15.4999 15.5Z" fill="#2D475D"/>
<path d="M24.5 16.5C25.4079 11.0525 21.9999 9.5 19.9999 9L20.0261 5C27.026 5 29.9998 18 28.4998 21C27.2998 23.4 24.5261 22.1667 23.5261 23C22.5261 23.3333 20.0372 25.3923 20.4447 25C20.5 24.9468 19.9187 23 20 21C21 20.5 24 19.5 24.5 16.5Z" fill="#2D475D"/>
<path d="M19 12.5L20 11L21 12.5L20 13.5L19 12.5Z" fill="#51CB33"/>
<path d="M21.5 23L25 22.5C28.7852 23.6355 32.8688 29.0395 34.7088 32.0176C34.8434 32.1935 34.942 32.3551 35 32.5C34.9105 32.3478 34.8133 32.1866 34.7088 32.0176C32.9861 29.766 25.3647 25.1642 21.5 23Z" fill="#0F293F"/>
<path d="M19 23C16.6 23.4 15.6667 22.8333 15.5 22.5C13.1 22.9 10.1667 25.6667 9 27C12.2 25 17 23.5 19 23Z" fill="#0F293F"/>
</g>
<defs>
<clipPath id="clip0_1388_13247">
<rect width="40" height="40" rx="20" fill="white"/>
</clipPath>
</defs>
</svg>
