<svg width="16" height="16" viewBox="0 0 16 16" fill="none" xmlns="http://www.w3.org/2000/svg">
<rect width="16" height="16" rx="2" fill="#0F293F"/>
<path d="M6 6H10V7H6V6Z" fill="#E3BF98"/>
<path d="M9.59961 4.40039V6.59961H6.40039V4.40039H9.59961Z" stroke="#E3BF98" stroke-width="0.8"/>
<mask id="path-4-inside-1_1785_15559" fill="white">
<path d="M5.5 6H10.5V7H5.5V6Z"/>
</mask>
<path d="M5.5 6V5H4.5V6H5.5ZM10.5 6H11.5V5H10.5V6ZM10.5 7V8H11.5V7H10.5ZM5.5 7H4.5V8H5.5V7ZM5.5 6V7H10.5V6V5H5.5V6ZM10.5 6H9.5V7H10.5H11.5V6H10.5ZM10.5 7V6H5.5V7V8H10.5V7ZM5.5 7H6.5V6H5.5H4.5V7H5.5Z" fill="#E3BF98" mask="url(#path-4-inside-1_1785_15559)"/>
<path d="M10 4H6L8 2L10 4Z" fill="#E3BF98"/>
<mask id="path-7-inside-2_1785_15559" fill="white">
<path d="M9.5 8L10.5 12.0176H10.1299C10.1113 11.9051 10.0386 11.7974 9.89941 11.7275C9.74708 11.6512 9.55779 11.6532 9.4082 11.7334L9.02832 11.9375C8.87699 12.0187 8.68417 12.0169 8.53516 11.9326L8.36523 11.8359C8.11128 11.6921 7.78137 11.6922 7.52734 11.8359L7.35156 11.9355C7.20447 12.0186 7.01484 12.0217 6.86426 11.9434L6.45898 11.7324C6.30552 11.6527 6.11267 11.6542 5.96094 11.7363C5.8314 11.8066 5.7633 11.91 5.74512 12.0176H5.46777L6.5 8H9.5Z"/>
</mask>
<path d="M9.5 8L10.5 12.0176H10.1299C10.1113 11.9051 10.0386 11.7974 9.89941 11.7275C9.74708 11.6512 9.55779 11.6532 9.4082 11.7334L9.02832 11.9375C8.87699 12.0187 8.68417 12.0169 8.53516 11.9326L8.36523 11.8359C8.11128 11.6921 7.78137 11.6922 7.52734 11.8359L7.35156 11.9355C7.20447 12.0186 7.01484 12.0217 6.86426 11.9434L6.45898 11.7324C6.30552 11.6527 6.11267 11.6542 5.96094 11.7363C5.8314 11.8066 5.7633 11.91 5.74512 12.0176H5.46777L6.5 8H9.5Z" fill="#E3BF98"/>
<path d="M9.5 8L14.352 6.79232L13.408 3H9.5V8ZM10.5 12.0176V17.0176H16.8971L15.352 10.8099L10.5 12.0176ZM10.1299 12.0176L5.19687 12.8333L5.88875 17.0176H10.1299V12.0176ZM9.89941 11.7275L12.141 7.25816L12.1393 7.25732L9.89941 11.7275ZM9.4082 11.7334L7.04507 7.32708L7.04176 7.32886L9.4082 11.7334ZM9.02832 11.9375L11.3922 16.3434L11.3948 16.342L9.02832 11.9375ZM8.53516 11.9326L6.06253 16.2785L6.07398 16.2849L8.53516 11.9326ZM8.36523 11.8359L10.8379 7.49011L10.8289 7.48502L8.36523 11.8359ZM7.52734 11.8359L5.06548 7.48401L5.06228 7.48583L7.52734 11.8359ZM7.35156 11.9355L9.80985 16.2895L9.81663 16.2857L7.35156 11.9355ZM6.86426 11.9434L4.55581 16.3786L4.55642 16.3789L6.86426 11.9434ZM6.45898 11.7324L8.76743 7.29721L8.76433 7.2956L6.45898 11.7324ZM5.96094 11.7363L3.58085 7.33915L3.57645 7.34154L5.96094 11.7363ZM5.74512 12.0176V17.0176H9.97095L10.6752 12.8508L5.74512 12.0176ZM5.46777 12.0176L0.625057 10.7734L-0.979257 17.0176H5.46777V12.0176ZM6.5 8V3H2.62225L1.65728 6.75577L6.5 8ZM9.5 8L4.64804 9.20768L5.64804 13.2253L10.5 12.0176L15.352 10.8099L14.352 6.79232L9.5 8ZM10.5 12.0176V7.01758H10.1299V12.0176V17.0176H10.5V12.0176ZM10.1299 12.0176L15.0629 11.2019C14.7639 9.39339 13.6001 7.98996 12.141 7.25816L9.89941 11.7275L7.65784 16.1969C6.4772 15.6048 5.45872 14.4169 5.19687 12.8333L10.1299 12.0176ZM9.89941 11.7275L12.1393 7.25732C10.5496 6.46074 8.64314 6.47003 7.04507 7.32709L9.4082 11.7334L11.7713 16.1397C10.4724 16.8363 8.9446 16.8417 7.65951 16.1978L9.89941 11.7275ZM9.4082 11.7334L7.04176 7.32886L6.66187 7.53296L9.02832 11.9375L11.3948 16.342L11.7747 16.1379L9.4082 11.7334ZM9.02832 11.9375L6.66449 7.53156C8.01514 6.80692 9.64363 6.81537 10.9963 7.58031L8.53516 11.9326L6.07398 16.2849C7.72471 17.2184 9.73884 17.2305 11.3922 16.3434L9.02832 11.9375ZM8.53516 11.9326L11.0078 7.5868L10.8379 7.49012L8.36523 11.8359L5.89261 16.1818L6.06253 16.2784L8.53516 11.9326ZM8.36523 11.8359L10.8289 7.48502C9.04525 6.47507 6.84576 6.47692 5.06548 7.48401L7.52734 11.8359L9.9892 16.1879C8.71699 16.9075 7.17732 16.9092 5.90159 16.1869L8.36523 11.8359ZM7.52734 11.8359L5.06228 7.48583L4.8865 7.58544L7.35156 11.9355L9.81663 16.2857L9.99241 16.186L7.52734 11.8359ZM7.35156 11.9355L4.89328 7.5816C6.22534 6.8295 7.82903 6.80902 9.1721 7.50784L6.86426 11.9434L4.55642 16.3789C6.20065 17.2344 8.1836 17.2077 9.80985 16.2895L7.35156 11.9355ZM6.86426 11.9434L9.1727 7.50815L8.76743 7.29721L6.45898 11.7324L4.15054 16.1676L4.55581 16.3786L6.86426 11.9434ZM6.45898 11.7324L8.76433 7.2956C7.14325 6.4533 5.19522 6.46533 3.58085 7.33915L5.96094 11.7363L8.34103 16.1335C7.03012 16.8431 5.4678 16.8521 4.15364 16.1692L6.45898 11.7324ZM5.96094 11.7363L3.57645 7.34154C2.19738 8.08978 1.10793 9.4514 0.815039 11.1843L5.74512 12.0176L10.6752 12.8508C10.4187 14.3686 9.46541 15.5234 8.34543 16.1311L5.96094 11.7363ZM5.74512 12.0176V7.01758H5.46777V12.0176V17.0176H5.74512V12.0176ZM5.46777 12.0176L10.3105 13.2618L11.3427 9.24423L6.5 8L1.65728 6.75577L0.625057 10.7734L5.46777 12.0176ZM6.5 8V13H9.5V8V3H6.5V8Z" fill="#E3BF98" mask="url(#path-7-inside-2_1785_15559)"/>
<path d="M4 14.5L4.61884 13.8106C4.9945 13.3921 5.65964 13.4238 5.99385 13.8761L6.08901 14.0049C6.40994 14.4392 7.06527 14.4213 7.36201 13.9701V13.9701C7.66591 13.508 8.34265 13.5041 8.65355 13.9615V13.9615C8.96061 14.4133 9.62614 14.4177 9.93757 13.969L10.0024 13.8755C10.3145 13.4259 10.9624 13.3802 11.3343 13.7817L12 14.5" stroke="#E3BF98" stroke-width="1.1"/>
<path d="M1.40191 5.74619C1.14166 6.49298 1 7.29703 1 8.1348C1 10.0788 1.76281 11.8413 3 13.1281M4.42396 2C5.47056 1.36483 6.69348 1 8 1C11.866 1 15 4.19436 15 8.1348C15 8.90875 14.8791 9.65391 14.6555 10.3517" stroke="#E3BF98" stroke-width="1.1"/>
<path d="M11.5 12.5606C12.8714 12.5606 13.4048 11.3889 13.5 10.5C13.625 11.9545 14.25 12.5606 15.5 12.5606C14.25 12.5606 13.5 13.0185 13.5 14.5C13.5 13.0778 12.6429 12.5606 11.5 12.5606Z" fill="#E3BF98"/>
<path d="M1.2998 4.06061C2.60587 4.06061 3.11378 2.88889 3.20448 2C3.32352 3.45455 4.10938 4 5.2998 4C4.10938 4 3.20448 4.51852 3.20448 6C3.20448 4.57778 2.38819 4.06061 1.2998 4.06061Z" fill="#E3BF98"/>
</svg>
